<svg xmlns="http://www.w3.org/2000/svg" xmlns:xlink="http://www.w3.org/1999/xlink" width="25" height="25" viewBox="0 0 25 25">
    <defs>
        <path id="a" d="M25 12.5c0 2.268-.559 4.36-1.676 6.274a12.444 12.444 0 0 1-4.55 4.55C16.86 24.44 14.768 25 12.5 25s-4.36-.559-6.274-1.676a12.444 12.444 0 0 1-4.55-4.55C.56 16.86 0 14.768 0 12.5s.559-4.36 1.676-6.274a12.444 12.444 0 0 1 4.55-4.55C8.14.56 10.232 0 12.5 0s4.36.559 6.274 1.676a12.444 12.444 0 0 1 4.55 4.55C24.44 8.14 25 10.232 25 12.5z"/>
        <path id="c" d="M2.84 3.882v8.065H.155V3.882H2.84zm.171-2.49c.005.396-.131.727-.41.992-.28.266-.648.4-1.104.4h-.016c-.445 0-.803-.134-1.074-.4A1.334 1.334 0 0 1 0 1.392C0 .99.14.658.42.395.698.132 1.062 0 1.513 0c.45 0 .81.132 1.082.395.271.263.41.595.415.997zM7 5.028c.103-.163.209-.306.317-.43a3.47 3.47 0 0 1 .46-.423c.192-.152.428-.27.708-.354.28-.084.59-.126.932-.126.927 0 1.673.308 2.238.923.564.616.846 1.518.846 2.706v4.623H9.823V7.633c0-.57-.11-1.015-.33-1.338-.22-.323-.563-.484-1.03-.484-.341 0-.627.093-.858.28a1.73 1.73 0 0 0-.517.696c-.06.163-.09.383-.09.66v4.5H4.322c.011-2.165.017-3.92.017-5.266 0-1.345-.003-2.148-.009-2.409l-.008-.39H7v1.146z"/>
    </defs>
    <g fill="none" fill-rule="evenodd">
        <g>
            <mask id="b" fill="#fff">
                <use xlink:href="#a"/>
            </mask>
            <use fill="#979797" xlink:href="#a"/>
            <g fill="#A9112C" mask="url(#b)">
                <path d="M0 0h25v25H0z"/>
            </g>
        </g>
        <g transform="translate(6.25 6.25)">
            <mask id="d" fill="#fff">
                <use xlink:href="#c"/>
            </mask>
            <use fill="#333" xlink:href="#c"/>
            <g fill="#FFF" mask="url(#d)">
                <path d="M-6.25-6.25h25v25h-25z"/>
            </g>
        </g>
    </g>
</svg>
