<svg xmlns="http://www.w3.org/2000/svg" xmlns:xlink="http://www.w3.org/1999/xlink" width="25" height="25" viewBox="0 0 25 25">
    <defs>
        <path id="a" d="M25 12.5c0 2.268-.559 4.36-1.676 6.274a12.444 12.444 0 0 1-4.55 4.55C16.86 24.44 14.768 25 12.5 25s-4.36-.559-6.274-1.676a12.444 12.444 0 0 1-4.55-4.55C.56 16.86 0 14.768 0 12.5s.559-4.36 1.676-6.274a12.444 12.444 0 0 1 4.55-4.55C8.14.56 10.232 0 12.5 0s4.36.559 6.274 1.676a12.444 12.444 0 0 1 4.55 4.55C24.44 8.14 25 10.232 25 12.5z"/>
        <path id="c" d="M13.035 1.257c-.37.54-.816 1-1.34 1.381a7.589 7.589 0 0 1-.306 2.494c-.21.714-.528 1.4-.955 2.055a8.08 8.08 0 0 1-1.526 1.741c-.59.505-1.302.907-2.134 1.208a7.81 7.81 0 0 1-2.672.45c-1.494 0-2.861-.4-4.102-1.199.193.022.408.033.645.033A5.23 5.23 0 0 0 3.962 8.28a2.605 2.605 0 0 1-1.555-.533 2.613 2.613 0 0 1-.943-1.32c.182.028.35.042.504.042.238 0 .472-.03.703-.091a2.628 2.628 0 0 1-1.534-.922 2.581 2.581 0 0 1-.608-1.7v-.033c.375.21.778.322 1.208.339A2.668 2.668 0 0 1 .546 1.836c0-.485.121-.934.364-1.348a7.573 7.573 0 0 0 2.436 1.973c.956.493 1.98.767 3.072.822a2.967 2.967 0 0 1-.066-.612c0-.738.26-1.368.782-1.89A2.575 2.575 0 0 1 9.024 0c.771 0 1.422.281 1.951.844a5.238 5.238 0 0 0 1.696-.646 2.594 2.594 0 0 1-1.175 1.473 5.323 5.323 0 0 0 1.539-.414z"/>
    </defs>
    <g fill="none" fill-rule="evenodd">
        <g>
            <mask id="b" fill="#fff">
                <use xlink:href="#a"/>
            </mask>
            <use fill="#979797" xlink:href="#a"/>
            <g fill="#A9112C" mask="url(#b)">
                <path d="M0 0h25v25H0z"/>
            </g>
        </g>
        <g transform="translate(6.25 7.5)">
            <mask id="d" fill="#fff">
                <use xlink:href="#c"/>
            </mask>
            <use fill="#333" xlink:href="#c"/>
            <g fill="#FFF" mask="url(#d)">
                <path d="M-6.25-7.5h25v25h-25z"/>
            </g>
        </g>
    </g>
</svg>
