<svg xmlns="http://www.w3.org/2000/svg" width="64" height="77" viewBox="0 0 64 77">
    <g fill="none" fill-rule="evenodd" stroke="#A91E2E" stroke-linecap="round" stroke-linejoin="round" stroke-width="2.7">
        <path d="M35.8 53.726a7.925 7.925 0 0 0-7.922 7.92h15.839a7.919 7.919 0 0 0-7.917-7.92zM9.401 74.912h52.805v-13.2H9.401zM17.322 22.107a7.92 7.92 0 1 1-15.84 0 7.92 7.92 0 1 1 15.84 0z"/>
        <path d="M11.588 22.107a2.185 2.185 0 1 1-4.372 0 2.187 2.187 0 1 1 4.372 0zM35.8 53.726l-21.322-25.54M9.402 22.107L49.006 9.923M49.006 9.923l3.665-8.107M60.777 5.482l-8.106-3.667M49.006 10.134l3.665 8.106M60.777 14.576l-8.106 3.664"/>
    </g>
</svg>
