<svg xmlns="http://www.w3.org/2000/svg" width="69" height="69" viewBox="0 0 69 69">
    <g fill="none" fill-rule="evenodd">
        <path stroke="#A91E2E" stroke-linecap="round" stroke-linejoin="round" stroke-width="2.7" d="M65.859 42.904C61.327 60.269 43.577 70.673 26.21 66.141 8.847 61.609-1.556 43.857 2.976 26.493 7.506 9.128 25.258-1.274 42.622 3.258 59.987 7.79 70.391 25.54 65.859 42.904z"/>
        <path stroke="#A91E2E" stroke-linecap="round" stroke-linejoin="round" stroke-width="2.7" d="M31.701 2.41S25.737 10.14 20.27 31.09c-4.633 17.746-4.405 27.726-4.227 30.364M52.574 7.857s1.425 9.66-4.042 30.608c-4.574 17.526-9.581 26.128-11.095 28.47"/>
        <path stroke="#A91E2E" stroke-linecap="round" stroke-linejoin="round" stroke-width="2.7" d="M5.117 20.645c1.332 3.789 4.961 12.269 13.96 24.913C27.5 57.39 34.145 63.76 37.605 66.673"/>
        <path stroke="#A91E2E" stroke-linecap="round" stroke-linejoin="round" stroke-width="2.7" d="M61.752 18.122c-3.576.224-13.305 1.4-29.615 7.458C11.041 33.413 3.143 40.419 3.143 40.419"/>
        <path stroke="#A91E2E" stroke-linecap="round" stroke-linejoin="round" stroke-width="2.7" d="M19.552 7.096s8.323 5.107 20.878 22.745C52.984 47.481 55.364 57.41 55.364 57.41"/>
        <path fill="#A91E2E" d="M56.38 19.299a4.278 4.278 0 1 1-8.555 0 4.278 4.278 0 0 1 8.555 0M30.569 12.579a4.278 4.278 0 1 1-8.556 0 4.278 4.278 0 0 1 8.556 0M21.45 41.854a4.278 4.278 0 1 1-8.555 0 4.278 4.278 0 0 1 8.556 0"/>
    </g>
</svg>
