<svg xmlns="http://www.w3.org/2000/svg" width="69" height="69" viewBox="0 0 69 69">
    <g fill="none" fill-rule="evenodd" stroke="#A91E2E" stroke-linecap="round" stroke-linejoin="round" stroke-width="2.7">
        <path d="M65.859 42.904C61.327 60.269 43.577 70.673 26.21 66.141 8.847 61.609-1.556 43.857 2.976 26.493 7.506 9.128 25.258-1.274 42.622 3.258 59.987 7.79 70.391 25.54 65.859 42.904z"/>
        <path d="M21.173 5.027s2.954 4.285 2.135 5.718c-.819 1.433-2.949 11.919 1.474 5.856 4.424-6.06 3.474-9.174 6.554-9.994 3.079-.819.983-4.41.983-4.41l-11.146 2.83zM51.224 6.882s1.409 9.555-5.143 9.228c-6.554-.328-8.978 1.284-10.322 2.36-1.344 1.08-3.768 5.47-6.716 5.34-2.95-.131-5.09 4.624 1.627 3.532 6.716-1.09 13.772-3.532 14.92-1.73 1.146 1.802.917 3.931-3.506 4.26-4.423.326-4.949 1.987-11.011 1.823-6.061-.165-13.053 7.049-8.584 11.118 3.61 3.287 4.663 4.895 10.527 3.113 3.234-.983 4.872 3.44 4.872 6.06 0 2.624 5.407 7.21 6.717 7.21 1.312 0 4.424-5.29 4.26-8.847-.164-3.556 4.752-9.383 2.13-10.344 0 0-6.062-3.962-1.475-6.966 4.587-3.005.984-5.844.984-5.844s-1.312-4.368 2.293-4.368c3.604 0 5.078 1.803 8.103 3.603 1.97 1.175 2.184-7.025 2.184-7.025S55.418 8.632 50.504 6.882M2.512 39.104c3.49-1.565 7.087-.655 8.726 8.114.443 2.377 4.198 8.386 3.219 13.13-6.987-4.916-12.25-17.07-11.945-21.244zM9.17 14.23s4.817 4.542 1.533 7.226c-.732.6-1.704 1.83-2.772 5.35-.488 1.606-5.18.605-5.18.605S4.387 18.823 9.17 14.23z"/>
    </g>
</svg>
