<svg xmlns="http://www.w3.org/2000/svg" width="56" height="81" viewBox="0 0 56 81">
    <g fill="none" fill-rule="evenodd" stroke="#A91E2E" stroke-linecap="round" stroke-linejoin="round" stroke-width="2.7">
        <path d="M3.976 79.148l15.82-26.052 15.821 26.052zM33.484 22.818a7.666 7.666 0 0 0-10.836-.001l10.835 10.835a7.661 7.661 0 0 0 .001-10.834z"/>
        <path d="M39.986 40.155l-6.503-6.503-10.836-10.836-6.501-6.501-6.501-6.5c-10.173 10.172-10.173 26.67 0 36.843 10.176 10.177 26.67 10.173 36.844 0l-6.503-6.503zM51.662 39.222c4.49-9.64 2.784-21.45-5.174-29.409C38.532 1.858 26.722.152 17.081 4.641"/>
        <path d="M24.285 11.846c5.472-1.26 11.44.207 15.702 4.47 4.26 4.26 5.727 10.227 4.467 15.699"/>
        <path d="M44.454 32.014c1.26-5.471-.206-11.439-4.468-15.698-4.262-4.263-10.229-5.73-15.7-4.47M14.362 41.94c-4.417-4.485-6.664-10.974-5.474-17.644"/>
    </g>
</svg>
